PathFileType	4	(X/Y/Z)	c:/Users/goper/Files/vsCode/490R/osim_files/C12/C12_Slow_01.trc
DataRate	CameraRate	NumFrames	NumMarkers	Units                	OrigDataRate	OrigDataStartFrame	OrigNumFrames
120.00	120.00	7	36	mm	120.0	966	1287
                Frame#	Time	LPSIS			LASIS			LTH1			LTH2			LTH3			LTH4			LLFE			LMFE			LSH1			LSH2			LSH3			LSH4			LLMAL			LMMAL			LCAL			LMTP5			LTOE			LMTP1			RPSIS			RASIS			RTH1			RTH2			RTH3			RTH4			RLFE			RMFE			RSH1			RSH2			RSH3			RSH4			RLMAL			RMMAL			RCAL			RMTP1			RTOE			RMTP5		
		X1	Y1	Z1	X2	Y2	Z2	X3	Y3	Z3	X4	Y4	Z4	X5	Y5	Z5	X6	Y6	Z6	X7	Y7	Z7	X8	Y8	Z8	X9	Y9	Z9	X10	Y10	Z10	X11	Y11	Z11	X12	Y12	Z12	X13	Y13	Z13	X14	Y14	Z14	X15	Y15	Z15	X16	Y16	Z16	X17	Y17	Z17	X18	Y18	Z18	X19	Y19	Z19	X20	Y20	Z20	X21	Y21	Z21	X22	Y22	Z22	X23	Y23	Z23	X24	Y24	Z24	X25	Y25	Z25	X26	Y26	Z26	X27	Y27	Z27	X28	Y28	Z28	X29	Y29	Z29	X30	Y30	Z30	X31	Y31	Z31	X32	Y32	Z32	X33	Y33	Z33	X34	Y34	Z34	X35	Y35	Z35	X36	Y36	Z36

966	8.04167	-2254.00415	1082.67444	359.97809	-2422.47461	1038.99255	442.56625	-2338.01953	757.26312	500.35468	-2354.23291	713.66858	505.80179	-2396.48853	770.59204	522.94659	-2402.79492	725.88080	524.59802	-2422.18408	546.91235	509.42349	-2464.28076	528.29175	388.64337	-2325.81616	512.10828	503.96353	-2292.49487	479.89746	507.39246	-2364.75562	466.11746	515.17969	-2324.99878	439.01379	512.34308	-2100.21216	264.18866	433.81061	-2132.22827	253.09000	362.32632	-2062.59937	304.32465	385.78119	-2098.87451	111.56467	451.80667	-2171.66553	88.25779	401.25891	-2142.19922	100.27262	351.82410	-2256.81494	1082.07056	244.94505	-2446.00806	1046.60242	187.37354	-2377.18042	756.86523	134.78896	-2389.84155	711.84003	145.72278	-2443.08521	762.94849	143.01303	-2444.04980	716.17041	150.69298	-2417.41284	536.83112	196.39665	-2404.52661	545.36908	327.89899	-2350.85742	441.82712	175.53787	-2349.03857	398.95874	170.69403	-2413.13940	432.16763	187.13992	-2401.98022	390.90320	179.70291	-2336.12231	110.54822	231.53986	-2348.58691	124.74639	312.73276	-2259.32178	78.49448	268.32196	-2472.13647	52.14630	318.57712	-2515.35010	70.97057	287.61914	-2483.57593	46.34261	212.23320
967	8.05000	-2262.75342	1084.69604	360.45578	-2431.68335	1040.70044	441.98322	-2355.08643	758.99902	504.29718	-2368.11084	715.89166	506.95996	-2410.29370	773.39655	523.56531	-2416.78760	728.95508	525.29639	-2438.94360	549.84998	509.96655	-2480.65283	532.37360	389.05829	-2343.24951	513.07520	504.59329	-2310.27954	480.16400	507.82147	-2382.65527	468.02371	515.35510	-2343.86914	439.96240	512.67358	-2123.02271	259.53207	434.66226	-2155.33740	249.20842	363.27261	0.00000	0.00000	0.00000	-2129.25000	107.55139	454.95395	-2202.86646	87.11535	404.66315	-2173.58545	96.86110	355.20483	-2265.39429	1083.68152	245.67421	-2453.88403	1047.33643	186.61760	-2378.97632	758.38770	134.57559	-2394.17041	712.64734	145.95941	-2448.08423	763.03442	142.70096	-2448.31763	716.23242	150.46759	-2419.41333	537.25867	196.42094	-2407.33203	545.69690	327.88382	-2351.82617	442.71759	175.72433	-2348.93652	400.22864	170.60287	-2414.21094	432.57346	187.05702	-2403.00000	391.51126	179.50055	-2336.51367	111.31676	231.54559	-2349.46753	125.38957	312.83395	-2259.82153	79.29186	268.48746	-2471.99268	51.66998	318.83215	-2515.57031	70.68043	287.56677	-2483.67261	46.26994	212.22594
968	8.05833	-2271.27637	1086.44641	361.02081	-2440.88940	1042.26599	441.37045	-2364.51978	761.15076	502.74585	-2381.86108	718.10352	508.10028	-2423.33398	776.30719	524.22900	-2430.59229	731.93683	526.01880	-2454.91675	552.73065	510.17841	-2496.82886	536.46851	389.40128	-2360.05371	513.64630	505.06207	-2327.05054	478.96918	507.12653	-2400.33032	469.02124	515.52936	-2362.56982	440.56140	512.96155	-2146.09863	254.20114	435.55731	-2178.88623	244.73306	364.33807	-2104.34180	289.03342	385.55188	-2160.72021	103.55266	458.50803	-2235.15356	86.18995	408.48621	-2205.03833	93.32303	358.66833	-2273.97485	1084.98254	246.38445	-2462.17480	1048.24121	186.00096	-2386.79541	758.74615	135.30055	-2400.07178	712.79779	146.40462	-2453.02295	763.08191	142.51039	-2452.70386	716.28253	150.20723	-2421.23389	537.68622	196.37813	-2410.39258	545.85596	327.85315	-2353.45874	443.28244	176.01012	-2351.13379	400.51614	171.11839	-2415.63770	433.15070	186.96590	-2404.18848	392.03702	179.51140	-2336.99683	112.11411	231.60806	-2350.05542	125.97427	312.81409	-2260.17505	80.11038	268.48584	-2472.12720	51.61737	318.90543	-2516.23560	69.88168	287.46051	-2483.78638	46.18283	212.20911
969	8.06667	-2279.15112	1088.27417	361.46896	-2449.85986	1043.59314	440.76074	-2380.47998	763.08569	506.12982	-2395.73413	719.97443	509.27039	-2436.25879	779.07220	524.69641	-2444.06592	734.69238	526.55713	-2471.20215	555.54266	510.37610	-2512.41772	540.30939	389.47165	-2376.69238	513.88953	505.39194	-2345.08081	478.20059	507.74142	-2418.55713	470.31781	515.73010	-2381.27148	440.84647	513.22900	-2169.88940	248.28999	436.56342	-2202.86548	239.63266	365.30905	-2125.98511	280.22653	386.79617	-2192.17114	99.45287	461.87213	-2267.27881	84.88537	412.09164	-2237.18823	89.64909	362.17593	-2282.40967	1086.31689	247.13495	-2470.32788	1049.03613	185.42625	-2391.68945	759.67419	135.58459	0.00000	0.00000	0.00000	-2458.04834	763.11426	142.33017	-2457.15552	716.31586	150.10034	-2423.32300	538.16821	196.39810	-2413.02515	546.22235	327.88910	-2355.00464	444.13065	176.12569	-2352.52075	401.29129	171.24173	-2417.25562	433.59760	187.05342	-2405.81006	392.61465	179.44038	-2337.16577	113.18843	231.20444	-2350.68628	126.64969	312.83807	-2260.42041	81.04546	268.42752	-2472.32153	51.60036	318.85452	-2516.54907	69.68154	287.41635	-2483.93066	45.98587	212.25845
970	8.07500	-2287.90161	1089.44116	362.21710	-2458.79688	1044.81360	440.26648	-2390.23804	764.66119	505.23523	-2408.60938	722.01184	510.39899	-2449.05151	781.61108	525.03632	-2457.00098	736.87225	526.99890	-2487.11328	558.02704	510.08884	-2527.38623	543.91675	389.65411	-2392.08911	513.96906	505.53192	-2362.29175	477.06870	508.13635	-2436.34351	471.36316	515.80463	-2399.93359	440.76929	513.43988	-2193.43262	242.40019	438.24335	-2227.48926	233.85651	366.54172	-2149.21289	270.83676	387.64780	-2223.84570	95.10522	465.35297	-2299.91626	83.69175	415.97183	-2269.89819	85.88525	365.89493	-2290.64551	1087.17908	247.66045	-2478.57153	1049.78760	184.97089	-2393.64917	761.02783	135.39282	-2403.04810	716.70514	145.27034	-2461.41040	762.28601	141.65369	-2461.41309	716.27350	149.88301	-2425.37280	538.50024	196.44084	-2415.65088	546.55450	328.05746	-2356.45898	444.81131	176.19086	-2354.17676	402.02106	171.27943	-2418.95752	434.01675	187.23903	-2407.16602	393.02380	179.60823	-2337.57568	114.00942	231.25377	-2350.87329	127.20605	312.72421	-2260.71948	81.86182	268.50879	-2472.45728	51.56332	318.80536	-2516.82397	69.50053	287.36203	-2484.04517	45.87126	212.23053
971	8.08333	-2296.61401	1090.31470	362.90982	-2467.84741	1046.07300	439.67740	-2402.77051	766.23846	506.43558	-2422.60498	723.85406	511.20959	-2461.42578	783.59351	525.65063	-2470.54248	739.37000	527.57031	-2502.91113	560.23462	509.54587	-2542.45581	547.33539	388.88281	-2409.55737	513.10815	506.18066	-2380.17041	475.56015	508.87100	-2454.08936	472.17627	515.76294	-2418.26904	440.39084	513.51862	-2217.96460	235.43320	439.36087	-2252.45386	227.57397	367.65375	0.00000	0.00000	0.00000	-2255.80005	90.67451	468.87128	-2332.35132	82.22739	419.75400	-2302.57397	82.06786	369.66211	-2299.52466	1087.94519	248.59399	-2486.60352	1050.47144	184.61707	-2401.72656	761.20007	136.29584	0.00000	0.00000	0.00000	-2466.29297	762.13074	141.55002	-2465.97241	716.27875	149.96390	-2427.52441	538.91681	196.48877	-2418.18506	546.92426	328.30713	-2359.03442	445.41266	176.14944	-2355.83667	402.74936	171.40965	-2420.73975	434.51358	187.35696	-2408.90796	393.56448	179.84209	-2337.96777	114.66305	231.31805	-2351.42236	127.79838	312.75812	-2260.74316	82.88199	268.43750	-2472.73706	51.71648	318.90488	-2517.12598	69.32854	287.34189	-2484.13062	45.76338	212.18626
972	8.09167	-2305.18872	1091.06592	363.68982	-2476.85767	1047.12659	439.21100	-2415.28125	767.62305	507.59680	-2435.60669	725.56799	512.28180	-2475.18042	786.74463	527.05841	-2483.72607	741.82843	527.88397	-2518.37671	562.21198	508.83209	-2556.89673	550.75214	388.41092	-2425.53516	512.27417	506.41809	-2397.76001	473.68298	509.34811	-2471.75366	472.77203	515.64899	-2437.43115	439.76263	513.80969	-2243.18213	228.14050	440.65228	-2278.07275	220.89328	368.54507	-2196.10034	250.82823	388.95557	-2287.81396	86.24504	472.28210	-2364.94092	80.75476	423.54709	-2335.32690	78.29863	373.34247	-2307.67627	1088.69409	249.41306	-2494.99536	1051.17700	184.41888	-2406.74634	761.96344	136.59048	0.00000	0.00000	0.00000	-2472.81470	762.69470	141.99312	-2470.50562	716.24622	150.00792	-2429.64258	539.23450	196.47385	-2420.87012	547.34241	328.49533	-2360.63062	446.30191	176.33438	-2357.60645	403.47977	171.36772	-2422.61841	435.03598	187.52693	-2410.57251	394.07089	179.99048	-2338.51392	115.46476	231.37813	-2352.03223	128.48349	312.74695	-2261.41284	83.81521	268.53906	-2472.86743	51.66327	318.82935	-2517.35986	69.15932	287.31601	-2484.23145	45.67237	212.15077
